#N canvas 0 22 1680 1002 10;
#X obj 667 116 OSCroute /pitch;
#X floatatom 668 160 5 0 0 0 - - -;
#X obj 736 412 tgl 15 0 empty empty empty 17 7 0 10 -262144 -1 -1 0
1;
#X text 736 42 Receives from Hailstone_Numbers.pde;
#X obj 667 88 dumpOSC 12001;
#X obj 671 228 phasor~;
#X obj 678 435 *~;
#X obj 678 469 dac~;
#X obj 669 273 expr~ $v1 > 0.5;
#X obj 669 296 *~ 2;
#X obj 669 320 -~ 1;
#X obj 892 343 tgl 15 0 empty empty empty 17 7 0 10 -262144 -1 -1 1
1;
#X obj 828 230 phasor~;
#X obj 834 366 *~;
#X obj 834 400 dac~;
#X obj 619 303 tgl 15 0 empty empty empty 17 7 0 10 -262144 -1 -1 0
1;
#X obj 561 326 *~;
#X obj 557 381 dac~;
#X obj 557 271 osc~;
#X obj 677 370 *~ 0.3;
#X obj 831 281 *~ 0.5;
#X connect 0 0 1 0;
#X connect 1 0 5 0;
#X connect 1 0 18 0;
#X connect 1 0 12 0;
#X connect 2 0 6 1;
#X connect 4 0 0 0;
#X connect 5 0 8 0;
#X connect 6 0 7 0;
#X connect 6 0 7 1;
#X connect 8 0 9 0;
#X connect 9 0 10 0;
#X connect 10 0 19 0;
#X connect 11 0 13 1;
#X connect 12 0 20 0;
#X connect 13 0 14 0;
#X connect 13 0 14 1;
#X connect 15 0 16 1;
#X connect 16 0 17 0;
#X connect 16 0 17 1;
#X connect 18 0 16 0;
#X connect 19 0 6 0;
#X connect 20 0 13 0;
