#N canvas 0 22 1680 1002 10;
#X obj 772 95 dumpOSC 12001;
#X obj 1117 161 print rejected;
#X obj 98 337 *~;
#X obj 98 369 dac~;
#X obj 166 273 bng 15 250 50 0 empty empty empty 17 7 0 10 -262144
-1 -1;
#X obj 166 369 line~;
#X obj 772 125 OSCroute /y0 /y1 /y2 /y3 /y4 /y5 /y6 /y7 /y8 /y9 /y10
/y11 /y12 /y13 /y14 /y15;
#X text 631 132 each is for one pitch;
#X obj 98 313 osc~ 261.6;
#X obj 98 270 mtof;
#X floatatom 98 292 5 0 0 0 - - -;
#X msg 222 313 1 \, 0 100;
#X msg 166 313 0 \, 1 10;
#X obj 222 288 delay 10;
#X msg 98 240 60;
#X obj 46 204 loadbang;
#X obj 81 512 *~;
#X obj 81 544 dac~;
#X obj 149 448 bng 15 250 50 0 empty empty empty 17 7 0 10 -262144
-1 -1;
#X obj 149 544 line~;
#X obj 81 488 osc~ 261.6;
#X obj 81 445 mtof;
#X floatatom 81 467 5 0 0 0 - - -;
#X msg 205 488 1 \, 0 100;
#X msg 149 488 0 \, 1 10;
#X obj 205 463 delay 10;
#X obj 29 379 loadbang;
#X obj 78 701 *~;
#X obj 78 733 dac~;
#X obj 146 637 bng 15 250 50 0 empty empty empty 17 7 0 10 -262144
-1 -1;
#X obj 146 733 line~;
#X obj 78 677 osc~ 261.6;
#X obj 78 634 mtof;
#X floatatom 78 656 5 0 0 0 - - -;
#X msg 202 677 1 \, 0 100;
#X msg 146 677 0 \, 1 10;
#X obj 202 652 delay 10;
#X obj 26 568 loadbang;
#X obj 84 893 *~;
#X obj 84 925 dac~;
#X obj 152 829 bng 15 250 50 0 empty empty empty 17 7 0 10 -262144
-1 -1;
#X obj 152 925 line~;
#X obj 84 869 osc~ 261.6;
#X obj 84 826 mtof;
#X floatatom 84 848 5 0 0 0 - - -;
#X msg 208 869 1 \, 0 100;
#X msg 152 869 0 \, 1 10;
#X obj 208 844 delay 10;
#X obj 32 760 loadbang;
#X obj 413 341 *~;
#X obj 413 373 dac~;
#X obj 481 277 bng 15 250 50 0 empty empty empty 17 7 0 10 -262144
-1 -1;
#X obj 481 373 line~;
#X obj 413 317 osc~ 261.6;
#X obj 413 274 mtof;
#X floatatom 413 296 5 0 0 0 - - -;
#X msg 537 317 1 \, 0 100;
#X msg 481 317 0 \, 1 10;
#X obj 537 292 delay 10;
#X obj 361 208 loadbang;
#X obj 396 516 *~;
#X obj 396 548 dac~;
#X obj 464 452 bng 15 250 50 0 empty empty empty 17 7 0 10 -262144
-1 -1;
#X obj 464 548 line~;
#X obj 396 492 osc~ 261.6;
#X obj 396 449 mtof;
#X floatatom 396 471 5 0 0 0 - - -;
#X msg 520 492 1 \, 0 100;
#X msg 464 492 0 \, 1 10;
#X obj 520 467 delay 10;
#X obj 344 383 loadbang;
#X obj 393 705 *~;
#X obj 393 737 dac~;
#X obj 461 641 bng 15 250 50 0 empty empty empty 17 7 0 10 -262144
-1 -1;
#X obj 461 737 line~;
#X obj 393 681 osc~ 261.6;
#X obj 393 638 mtof;
#X floatatom 393 660 5 0 0 0 - - -;
#X msg 517 681 1 \, 0 100;
#X msg 461 681 0 \, 1 10;
#X obj 517 656 delay 10;
#X obj 341 572 loadbang;
#X obj 399 897 *~;
#X obj 399 929 dac~;
#X obj 467 833 bng 15 250 50 0 empty empty empty 17 7 0 10 -262144
-1 -1;
#X obj 467 929 line~;
#X obj 399 873 osc~ 261.6;
#X obj 399 830 mtof;
#X floatatom 399 852 5 0 0 0 - - -;
#X msg 523 873 1 \, 0 100;
#X msg 467 873 0 \, 1 10;
#X obj 523 848 delay 10;
#X obj 347 764 loadbang;
#X obj 764 336 *~;
#X obj 764 368 dac~;
#X obj 832 272 bng 15 250 50 0 empty empty empty 17 7 0 10 -262144
-1 -1;
#X obj 832 368 line~;
#X obj 764 312 osc~ 261.6;
#X obj 764 269 mtof;
#X floatatom 764 291 5 0 0 0 - - -;
#X msg 888 312 1 \, 0 100;
#X msg 832 312 0 \, 1 10;
#X obj 888 287 delay 10;
#X obj 712 203 loadbang;
#X obj 747 511 *~;
#X obj 747 543 dac~;
#X obj 815 447 bng 15 250 50 0 empty empty empty 17 7 0 10 -262144
-1 -1;
#X obj 815 543 line~;
#X obj 747 487 osc~ 261.6;
#X obj 747 444 mtof;
#X floatatom 747 466 5 0 0 0 - - -;
#X msg 871 487 1 \, 0 100;
#X msg 815 487 0 \, 1 10;
#X obj 871 462 delay 10;
#X obj 695 378 loadbang;
#X obj 744 700 *~;
#X obj 744 732 dac~;
#X obj 812 636 bng 15 250 50 0 empty empty empty 17 7 0 10 -262144
-1 -1;
#X obj 812 732 line~;
#X obj 744 676 osc~ 261.6;
#X obj 744 633 mtof;
#X floatatom 744 655 5 0 0 0 - - -;
#X msg 868 676 1 \, 0 100;
#X msg 812 676 0 \, 1 10;
#X obj 868 651 delay 10;
#X obj 692 567 loadbang;
#X obj 750 892 *~;
#X obj 750 924 dac~;
#X obj 818 828 bng 15 250 50 0 empty empty empty 17 7 0 10 -262144
-1 -1;
#X obj 818 924 line~;
#X obj 750 868 osc~ 261.6;
#X obj 750 825 mtof;
#X floatatom 750 847 5 0 0 0 - - -;
#X msg 874 868 1 \, 0 100;
#X msg 818 868 0 \, 1 10;
#X obj 874 843 delay 10;
#X obj 698 759 loadbang;
#X obj 1082 341 *~;
#X obj 1082 373 dac~;
#X obj 1150 277 bng 15 250 50 0 empty empty empty 17 7 0 10 -262144
-1 -1;
#X obj 1150 373 line~;
#X obj 1082 317 osc~ 261.6;
#X obj 1082 274 mtof;
#X floatatom 1082 296 5 0 0 0 - - -;
#X msg 1206 317 1 \, 0 100;
#X msg 1150 317 0 \, 1 10;
#X obj 1206 292 delay 10;
#X obj 1030 208 loadbang;
#X obj 1065 516 *~;
#X obj 1065 548 dac~;
#X obj 1133 452 bng 15 250 50 0 empty empty empty 17 7 0 10 -262144
-1 -1;
#X obj 1133 548 line~;
#X obj 1065 492 osc~ 261.6;
#X obj 1065 449 mtof;
#X floatatom 1065 471 5 0 0 0 - - -;
#X msg 1189 492 1 \, 0 100;
#X msg 1133 492 0 \, 1 10;
#X obj 1189 467 delay 10;
#X obj 1013 383 loadbang;
#X obj 1062 705 *~;
#X obj 1062 737 dac~;
#X obj 1130 641 bng 15 250 50 0 empty empty empty 17 7 0 10 -262144
-1 -1;
#X obj 1130 737 line~;
#X obj 1062 681 osc~ 261.6;
#X obj 1062 638 mtof;
#X floatatom 1062 660 5 0 0 0 - - -;
#X msg 1186 681 1 \, 0 100;
#X msg 1130 681 0 \, 1 10;
#X obj 1186 656 delay 10;
#X obj 1010 572 loadbang;
#X obj 1068 897 *~;
#X obj 1068 929 dac~;
#X obj 1136 833 bng 15 250 50 0 empty empty empty 17 7 0 10 -262144
-1 -1;
#X obj 1136 929 line~;
#X obj 1068 873 osc~ 261.6;
#X obj 1068 830 mtof;
#X floatatom 1068 852 5 0 0 0 - - -;
#X msg 1192 873 1 \, 0 100;
#X msg 1136 873 0 \, 1 10;
#X obj 1192 848 delay 10;
#X obj 1016 764 loadbang;
#X msg 81 415 62;
#X msg 77 604 65;
#X msg 83 798 67;
#X msg 413 244 69;
#X msg 396 419 72;
#X msg 393 608 74;
#X msg 399 800 77;
#X msg 764 238 79;
#X msg 747 413 81;
#X msg 744 603 84;
#X msg 750 795 86;
#X msg 1082 244 89;
#X msg 1065 419 91;
#X msg 1062 607 93;
#X msg 1070 797 96;
#X text 726 45 MatrixSynth Audio - Pentatonic;
#X connect 0 0 6 0;
#X connect 2 0 3 0;
#X connect 2 0 3 1;
#X connect 4 0 12 0;
#X connect 4 0 13 0;
#X connect 5 0 2 1;
#X connect 6 0 4 0;
#X connect 6 0 14 0;
#X connect 6 1 181 0;
#X connect 6 1 18 0;
#X connect 6 2 182 0;
#X connect 6 2 29 0;
#X connect 6 3 183 0;
#X connect 6 3 40 0;
#X connect 6 4 184 0;
#X connect 6 4 51 0;
#X connect 6 5 185 0;
#X connect 6 5 62 0;
#X connect 6 6 186 0;
#X connect 6 6 73 0;
#X connect 6 7 187 0;
#X connect 6 7 84 0;
#X connect 6 8 188 0;
#X connect 6 8 95 0;
#X connect 6 9 189 0;
#X connect 6 9 106 0;
#X connect 6 10 190 0;
#X connect 6 10 117 0;
#X connect 6 11 191 0;
#X connect 6 11 128 0;
#X connect 6 12 192 0;
#X connect 6 12 139 0;
#X connect 6 13 193 0;
#X connect 6 13 150 0;
#X connect 6 14 194 0;
#X connect 6 14 161 0;
#X connect 6 15 195 0;
#X connect 6 15 172 0;
#X connect 6 16 1 0;
#X connect 8 0 2 0;
#X connect 9 0 10 0;
#X connect 10 0 8 0;
#X connect 11 0 5 0;
#X connect 12 0 5 0;
#X connect 13 0 11 0;
#X connect 14 0 9 0;
#X connect 15 0 14 0;
#X connect 16 0 17 0;
#X connect 16 0 17 1;
#X connect 18 0 24 0;
#X connect 18 0 25 0;
#X connect 19 0 16 1;
#X connect 20 0 16 0;
#X connect 21 0 22 0;
#X connect 22 0 20 0;
#X connect 23 0 19 0;
#X connect 24 0 19 0;
#X connect 25 0 23 0;
#X connect 26 0 181 0;
#X connect 27 0 28 0;
#X connect 27 0 28 1;
#X connect 29 0 35 0;
#X connect 29 0 36 0;
#X connect 30 0 27 1;
#X connect 31 0 27 0;
#X connect 32 0 33 0;
#X connect 33 0 31 0;
#X connect 34 0 30 0;
#X connect 35 0 30 0;
#X connect 36 0 34 0;
#X connect 37 0 182 0;
#X connect 38 0 39 0;
#X connect 38 0 39 1;
#X connect 40 0 46 0;
#X connect 40 0 47 0;
#X connect 41 0 38 1;
#X connect 42 0 38 0;
#X connect 43 0 44 0;
#X connect 44 0 42 0;
#X connect 45 0 41 0;
#X connect 46 0 41 0;
#X connect 47 0 45 0;
#X connect 48 0 183 0;
#X connect 49 0 50 0;
#X connect 49 0 50 1;
#X connect 51 0 57 0;
#X connect 51 0 58 0;
#X connect 52 0 49 1;
#X connect 53 0 49 0;
#X connect 54 0 55 0;
#X connect 55 0 53 0;
#X connect 56 0 52 0;
#X connect 57 0 52 0;
#X connect 58 0 56 0;
#X connect 59 0 184 0;
#X connect 60 0 61 0;
#X connect 60 0 61 1;
#X connect 62 0 68 0;
#X connect 62 0 69 0;
#X connect 63 0 60 1;
#X connect 64 0 60 0;
#X connect 65 0 66 0;
#X connect 66 0 64 0;
#X connect 67 0 63 0;
#X connect 68 0 63 0;
#X connect 69 0 67 0;
#X connect 70 0 185 0;
#X connect 71 0 72 0;
#X connect 71 0 72 1;
#X connect 73 0 79 0;
#X connect 73 0 80 0;
#X connect 74 0 71 1;
#X connect 75 0 71 0;
#X connect 76 0 77 0;
#X connect 77 0 75 0;
#X connect 78 0 74 0;
#X connect 79 0 74 0;
#X connect 80 0 78 0;
#X connect 81 0 186 0;
#X connect 82 0 83 0;
#X connect 82 0 83 1;
#X connect 84 0 90 0;
#X connect 84 0 91 0;
#X connect 85 0 82 1;
#X connect 86 0 82 0;
#X connect 87 0 88 0;
#X connect 88 0 86 0;
#X connect 89 0 85 0;
#X connect 90 0 85 0;
#X connect 91 0 89 0;
#X connect 92 0 187 0;
#X connect 93 0 94 0;
#X connect 93 0 94 1;
#X connect 95 0 101 0;
#X connect 95 0 102 0;
#X connect 96 0 93 1;
#X connect 97 0 93 0;
#X connect 98 0 99 0;
#X connect 99 0 97 0;
#X connect 100 0 96 0;
#X connect 101 0 96 0;
#X connect 102 0 100 0;
#X connect 103 0 188 0;
#X connect 104 0 105 0;
#X connect 104 0 105 1;
#X connect 106 0 112 0;
#X connect 106 0 113 0;
#X connect 107 0 104 1;
#X connect 108 0 104 0;
#X connect 109 0 110 0;
#X connect 110 0 108 0;
#X connect 111 0 107 0;
#X connect 112 0 107 0;
#X connect 113 0 111 0;
#X connect 114 0 189 0;
#X connect 115 0 116 0;
#X connect 115 0 116 1;
#X connect 117 0 123 0;
#X connect 117 0 124 0;
#X connect 118 0 115 1;
#X connect 119 0 115 0;
#X connect 120 0 121 0;
#X connect 121 0 119 0;
#X connect 122 0 118 0;
#X connect 123 0 118 0;
#X connect 124 0 122 0;
#X connect 125 0 190 0;
#X connect 126 0 127 0;
#X connect 126 0 127 1;
#X connect 128 0 134 0;
#X connect 128 0 135 0;
#X connect 129 0 126 1;
#X connect 130 0 126 0;
#X connect 131 0 132 0;
#X connect 132 0 130 0;
#X connect 133 0 129 0;
#X connect 134 0 129 0;
#X connect 135 0 133 0;
#X connect 136 0 191 0;
#X connect 137 0 138 0;
#X connect 137 0 138 1;
#X connect 139 0 145 0;
#X connect 139 0 146 0;
#X connect 140 0 137 1;
#X connect 141 0 137 0;
#X connect 142 0 143 0;
#X connect 143 0 141 0;
#X connect 144 0 140 0;
#X connect 145 0 140 0;
#X connect 146 0 144 0;
#X connect 147 0 192 0;
#X connect 148 0 149 0;
#X connect 148 0 149 1;
#X connect 150 0 156 0;
#X connect 150 0 157 0;
#X connect 151 0 148 1;
#X connect 152 0 148 0;
#X connect 153 0 154 0;
#X connect 154 0 152 0;
#X connect 155 0 151 0;
#X connect 156 0 151 0;
#X connect 157 0 155 0;
#X connect 158 0 193 0;
#X connect 159 0 160 0;
#X connect 159 0 160 1;
#X connect 161 0 167 0;
#X connect 161 0 168 0;
#X connect 162 0 159 1;
#X connect 163 0 159 0;
#X connect 164 0 165 0;
#X connect 165 0 163 0;
#X connect 166 0 162 0;
#X connect 167 0 162 0;
#X connect 168 0 166 0;
#X connect 169 0 194 0;
#X connect 170 0 171 0;
#X connect 170 0 171 1;
#X connect 172 0 178 0;
#X connect 172 0 179 0;
#X connect 173 0 170 1;
#X connect 174 0 170 0;
#X connect 175 0 176 0;
#X connect 176 0 174 0;
#X connect 177 0 173 0;
#X connect 178 0 173 0;
#X connect 179 0 177 0;
#X connect 180 0 195 0;
#X connect 181 0 21 0;
#X connect 182 0 32 0;
#X connect 183 0 43 0;
#X connect 184 0 54 0;
#X connect 185 0 65 0;
#X connect 186 0 76 0;
#X connect 187 0 87 0;
#X connect 188 0 98 0;
#X connect 189 0 109 0;
#X connect 190 0 120 0;
#X connect 191 0 131 0;
#X connect 192 0 142 0;
#X connect 193 0 153 0;
#X connect 194 0 164 0;
#X connect 195 0 175 0;
