#N canvas 0 22 1680 1002 10;
#X obj 772 95 dumpOSC 12001;
#X obj 1117 161 print rejected;
#X obj 98 337 *~;
#X obj 98 369 dac~;
#X obj 166 273 bng 15 250 50 0 empty empty empty 17 7 0 10 -262144
-1 -1;
#X obj 166 369 line~;
#X obj 772 125 OSCroute /y0 /y1 /y2 /y3 /y4 /y5 /y6 /y7 /y8 /y9 /y10
/y11 /y12 /y13 /y14 /y15;
#X text 631 132 each is for one pitch;
#X obj 98 313 osc~ 261.6;
#X floatatom 98 248 5 0 0 0 - - -;
#X obj 98 270 mtof;
#X floatatom 98 292 5 0 0 0 - - -;
#X obj 100 492 *~;
#X obj 100 524 dac~;
#X obj 168 428 bng 15 250 50 0 empty empty empty 17 7 0 10 -262144
-1 -1;
#X obj 168 524 line~;
#X obj 100 468 osc~ 261.6;
#X floatatom 100 403 5 0 0 0 - - -;
#X obj 100 425 mtof;
#X floatatom 100 447 5 0 0 0 - - -;
#X obj 100 642 *~;
#X obj 100 674 dac~;
#X obj 168 578 bng 15 250 50 0 empty empty empty 17 7 0 10 -262144
-1 -1;
#X obj 168 674 line~;
#X obj 100 618 osc~ 261.6;
#X floatatom 100 553 5 0 0 0 - - -;
#X obj 100 575 mtof;
#X floatatom 100 597 5 0 0 0 - - -;
#X obj 97 797 *~;
#X obj 97 829 dac~;
#X obj 165 733 bng 15 250 50 0 empty empty empty 17 7 0 10 -262144
-1 -1;
#X obj 165 829 line~;
#X obj 97 773 osc~ 261.6;
#X floatatom 97 708 5 0 0 0 - - -;
#X obj 97 730 mtof;
#X floatatom 97 752 5 0 0 0 - - -;
#X obj 423 339 *~;
#X obj 423 371 dac~;
#X obj 491 275 bng 15 250 50 0 empty empty empty 17 7 0 10 -262144
-1 -1;
#X obj 491 371 line~;
#X obj 423 315 osc~ 261.6;
#X floatatom 423 250 5 0 0 0 - - -;
#X obj 423 272 mtof;
#X floatatom 423 294 5 0 0 0 - - -;
#X obj 424 492 *~;
#X obj 424 524 dac~;
#X obj 492 428 bng 15 250 50 0 empty empty empty 17 7 0 10 -262144
-1 -1;
#X obj 492 524 line~;
#X obj 424 468 osc~ 261.6;
#X floatatom 424 403 5 0 0 0 - - -;
#X obj 424 425 mtof;
#X floatatom 424 447 5 0 0 0 - - -;
#X obj 422 639 *~;
#X obj 422 671 dac~;
#X obj 490 575 bng 15 250 50 0 empty empty empty 17 7 0 10 -262144
-1 -1;
#X obj 490 671 line~;
#X obj 422 615 osc~ 261.6;
#X floatatom 422 550 5 0 0 0 - - -;
#X obj 422 572 mtof;
#X floatatom 422 594 5 0 0 0 - - -;
#X obj 425 794 *~;
#X obj 425 826 dac~;
#X obj 493 730 bng 15 250 50 0 empty empty empty 17 7 0 10 -262144
-1 -1;
#X obj 493 826 line~;
#X obj 425 770 osc~ 261.6;
#X floatatom 425 705 5 0 0 0 - - -;
#X obj 425 727 mtof;
#X floatatom 425 749 5 0 0 0 - - -;
#X obj 774 330 *~;
#X obj 774 362 dac~;
#X obj 842 266 bng 15 250 50 0 empty empty empty 17 7 0 10 -262144
-1 -1;
#X obj 842 362 line~;
#X obj 774 306 osc~ 261.6;
#X floatatom 774 241 5 0 0 0 - - -;
#X obj 774 263 mtof;
#X floatatom 774 285 5 0 0 0 - - -;
#X obj 776 485 *~;
#X obj 776 517 dac~;
#X obj 844 421 bng 15 250 50 0 empty empty empty 17 7 0 10 -262144
-1 -1;
#X obj 844 517 line~;
#X obj 776 461 osc~ 261.6;
#X floatatom 776 396 5 0 0 0 - - -;
#X obj 776 418 mtof;
#X floatatom 776 440 5 0 0 0 - - -;
#X obj 776 635 *~;
#X obj 776 667 dac~;
#X obj 844 571 bng 15 250 50 0 empty empty empty 17 7 0 10 -262144
-1 -1;
#X obj 844 667 line~;
#X obj 776 611 osc~ 261.6;
#X floatatom 776 546 5 0 0 0 - - -;
#X obj 776 568 mtof;
#X floatatom 776 590 5 0 0 0 - - -;
#X obj 773 790 *~;
#X obj 773 822 dac~;
#X obj 841 726 bng 15 250 50 0 empty empty empty 17 7 0 10 -262144
-1 -1;
#X obj 841 822 line~;
#X obj 773 766 osc~ 261.6;
#X floatatom 773 701 5 0 0 0 - - -;
#X obj 773 723 mtof;
#X floatatom 773 745 5 0 0 0 - - -;
#X obj 1117 345 *~;
#X obj 1117 377 dac~;
#X obj 1185 281 bng 15 250 50 0 empty empty empty 17 7 0 10 -262144
-1 -1;
#X obj 1185 377 line~;
#X obj 1117 321 osc~ 261.6;
#X floatatom 1117 256 5 0 0 0 - - -;
#X obj 1117 278 mtof;
#X floatatom 1117 300 5 0 0 0 - - -;
#X obj 1118 498 *~;
#X obj 1118 530 dac~;
#X obj 1186 434 bng 15 250 50 0 empty empty empty 17 7 0 10 -262144
-1 -1;
#X obj 1186 530 line~;
#X obj 1118 474 osc~ 261.6;
#X floatatom 1118 409 5 0 0 0 - - -;
#X obj 1118 431 mtof;
#X floatatom 1118 453 5 0 0 0 - - -;
#X obj 1116 645 *~;
#X obj 1116 677 dac~;
#X obj 1184 581 bng 15 250 50 0 empty empty empty 17 7 0 10 -262144
-1 -1;
#X obj 1184 677 line~;
#X obj 1116 621 osc~ 261.6;
#X floatatom 1116 556 5 0 0 0 - - -;
#X obj 1116 578 mtof;
#X floatatom 1116 600 5 0 0 0 - - -;
#X obj 1119 800 *~;
#X obj 1119 832 dac~;
#X obj 1187 736 bng 15 250 50 0 empty empty empty 17 7 0 10 -262144
-1 -1;
#X obj 1187 832 line~;
#X obj 1119 776 osc~ 261.6;
#X floatatom 1119 711 5 0 0 0 - - -;
#X obj 1119 733 mtof;
#X floatatom 1119 755 5 0 0 0 - - -;
#X msg 222 313 1 \, 0 100;
#X msg 224 468 1 \, 0 100;
#X msg 224 618 1 \, 0 100;
#X msg 221 773 1 \, 0 100;
#X msg 547 315 1 \, 0 100;
#X msg 548 468 1 \, 0 100;
#X msg 546 615 1 \, 0 100;
#X msg 549 770 1 \, 0 100;
#X msg 898 306 1 \, 0 100;
#X msg 900 461 1 \, 0 100;
#X msg 900 611 1 \, 0 100;
#X msg 897 766 1 \, 0 100;
#X msg 1241 321 1 \, 0 100;
#X msg 1242 474 1 \, 0 100;
#X msg 1240 621 1 \, 0 100;
#X msg 1243 775 1 \, 0 100;
#X msg 166 313 0 \, 1 10;
#X obj 222 288 delay 10;
#X obj 224 443 delay 10;
#X obj 225 593 delay 10;
#X obj 221 748 delay 10;
#X obj 547 290 delay 10;
#X obj 548 443 delay 10;
#X obj 546 590 delay 10;
#X obj 549 745 delay 10;
#X obj 898 281 delay 10;
#X obj 900 436 delay 10;
#X obj 900 586 delay 10;
#X obj 898 742 delay 10;
#X obj 1241 296 delay 10;
#X obj 1242 449 delay 10;
#X obj 1240 596 delay 10;
#X msg 168 468 0 \, 1 10;
#X msg 168 618 0 \, 1 10;
#X msg 165 773 0 \, 1 10;
#X msg 491 315 0 \, 1 10;
#X msg 492 468 0 \, 1 10;
#X msg 490 615 0 \, 1 10;
#X msg 493 770 0 \, 1 10;
#X msg 842 306 0 \, 1 10;
#X msg 844 461 0 \, 1 10;
#X msg 844 611 0 \, 1 10;
#X msg 841 766 0 \, 1 10;
#X msg 1185 321 0 \, 1 10;
#X msg 1187 474 0 \, 1 10;
#X msg 1184 621 0 \, 1 10;
#X msg 1187 776 0 \, 1 10;
#X obj 1243 751 delay 10;
#X text 741 41 MatrixSynth Audio - Chromatic;
#X connect 0 0 6 0;
#X connect 2 0 3 0;
#X connect 2 0 3 1;
#X connect 4 0 148 0;
#X connect 4 0 149 0;
#X connect 5 0 2 1;
#X connect 6 0 4 0;
#X connect 6 0 9 0;
#X connect 6 1 17 0;
#X connect 6 1 14 0;
#X connect 6 2 25 0;
#X connect 6 2 22 0;
#X connect 6 3 33 0;
#X connect 6 3 30 0;
#X connect 6 4 41 0;
#X connect 6 4 38 0;
#X connect 6 5 49 0;
#X connect 6 5 46 0;
#X connect 6 6 57 0;
#X connect 6 6 54 0;
#X connect 6 7 65 0;
#X connect 6 7 62 0;
#X connect 6 8 73 0;
#X connect 6 8 70 0;
#X connect 6 9 81 0;
#X connect 6 9 78 0;
#X connect 6 10 89 0;
#X connect 6 10 86 0;
#X connect 6 11 97 0;
#X connect 6 11 94 0;
#X connect 6 12 105 0;
#X connect 6 12 102 0;
#X connect 6 13 113 0;
#X connect 6 13 110 0;
#X connect 6 14 121 0;
#X connect 6 14 118 0;
#X connect 6 15 129 0;
#X connect 6 15 126 0;
#X connect 6 16 1 0;
#X connect 8 0 2 0;
#X connect 9 0 10 0;
#X connect 10 0 11 0;
#X connect 11 0 8 0;
#X connect 12 0 13 0;
#X connect 12 0 13 1;
#X connect 14 0 164 0;
#X connect 14 0 150 0;
#X connect 15 0 12 1;
#X connect 16 0 12 0;
#X connect 17 0 18 0;
#X connect 18 0 19 0;
#X connect 19 0 16 0;
#X connect 20 0 21 0;
#X connect 20 0 21 1;
#X connect 22 0 165 0;
#X connect 22 0 151 0;
#X connect 23 0 20 1;
#X connect 24 0 20 0;
#X connect 25 0 26 0;
#X connect 26 0 27 0;
#X connect 27 0 24 0;
#X connect 28 0 29 0;
#X connect 28 0 29 1;
#X connect 30 0 166 0;
#X connect 30 0 152 0;
#X connect 31 0 28 1;
#X connect 32 0 28 0;
#X connect 33 0 34 0;
#X connect 34 0 35 0;
#X connect 35 0 32 0;
#X connect 36 0 37 0;
#X connect 36 0 37 1;
#X connect 38 0 167 0;
#X connect 38 0 153 0;
#X connect 39 0 36 1;
#X connect 40 0 36 0;
#X connect 41 0 42 0;
#X connect 42 0 43 0;
#X connect 43 0 40 0;
#X connect 44 0 45 0;
#X connect 44 0 45 1;
#X connect 46 0 168 0;
#X connect 46 0 154 0;
#X connect 47 0 44 1;
#X connect 48 0 44 0;
#X connect 49 0 50 0;
#X connect 50 0 51 0;
#X connect 51 0 48 0;
#X connect 52 0 53 0;
#X connect 52 0 53 1;
#X connect 54 0 169 0;
#X connect 54 0 155 0;
#X connect 55 0 52 1;
#X connect 56 0 52 0;
#X connect 57 0 58 0;
#X connect 58 0 59 0;
#X connect 59 0 56 0;
#X connect 60 0 61 0;
#X connect 60 0 61 1;
#X connect 62 0 170 0;
#X connect 62 0 156 0;
#X connect 63 0 60 1;
#X connect 64 0 60 0;
#X connect 65 0 66 0;
#X connect 66 0 67 0;
#X connect 67 0 64 0;
#X connect 68 0 69 0;
#X connect 68 0 69 1;
#X connect 70 0 171 0;
#X connect 70 0 157 0;
#X connect 71 0 68 1;
#X connect 72 0 68 0;
#X connect 73 0 74 0;
#X connect 74 0 75 0;
#X connect 75 0 72 0;
#X connect 76 0 77 0;
#X connect 76 0 77 1;
#X connect 78 0 172 0;
#X connect 78 0 158 0;
#X connect 79 0 76 1;
#X connect 80 0 76 0;
#X connect 81 0 82 0;
#X connect 82 0 83 0;
#X connect 83 0 80 0;
#X connect 84 0 85 0;
#X connect 84 0 85 1;
#X connect 86 0 173 0;
#X connect 86 0 159 0;
#X connect 87 0 84 1;
#X connect 88 0 84 0;
#X connect 89 0 90 0;
#X connect 90 0 91 0;
#X connect 91 0 88 0;
#X connect 92 0 93 0;
#X connect 92 0 93 1;
#X connect 94 0 174 0;
#X connect 94 0 160 0;
#X connect 95 0 92 1;
#X connect 96 0 92 0;
#X connect 97 0 98 0;
#X connect 98 0 99 0;
#X connect 99 0 96 0;
#X connect 100 0 101 0;
#X connect 100 0 101 1;
#X connect 102 0 175 0;
#X connect 102 0 161 0;
#X connect 103 0 100 1;
#X connect 104 0 100 0;
#X connect 105 0 106 0;
#X connect 106 0 107 0;
#X connect 107 0 104 0;
#X connect 108 0 109 0;
#X connect 108 0 109 1;
#X connect 110 0 176 0;
#X connect 110 0 162 0;
#X connect 111 0 108 1;
#X connect 112 0 108 0;
#X connect 113 0 114 0;
#X connect 114 0 115 0;
#X connect 115 0 112 0;
#X connect 116 0 117 0;
#X connect 116 0 117 1;
#X connect 118 0 177 0;
#X connect 118 0 163 0;
#X connect 119 0 116 1;
#X connect 120 0 116 0;
#X connect 121 0 122 0;
#X connect 122 0 123 0;
#X connect 123 0 120 0;
#X connect 124 0 125 0;
#X connect 124 0 125 1;
#X connect 126 0 178 0;
#X connect 126 0 179 0;
#X connect 127 0 124 1;
#X connect 128 0 124 0;
#X connect 129 0 130 0;
#X connect 130 0 131 0;
#X connect 131 0 128 0;
#X connect 132 0 5 0;
#X connect 133 0 15 0;
#X connect 134 0 23 0;
#X connect 135 0 31 0;
#X connect 136 0 39 0;
#X connect 137 0 47 0;
#X connect 138 0 55 0;
#X connect 139 0 63 0;
#X connect 140 0 71 0;
#X connect 141 0 79 0;
#X connect 142 0 87 0;
#X connect 143 0 95 0;
#X connect 144 0 103 0;
#X connect 145 0 111 0;
#X connect 146 0 119 0;
#X connect 147 0 127 0;
#X connect 148 0 5 0;
#X connect 149 0 132 0;
#X connect 150 0 133 0;
#X connect 151 0 134 0;
#X connect 152 0 135 0;
#X connect 153 0 136 0;
#X connect 154 0 137 0;
#X connect 155 0 138 0;
#X connect 156 0 139 0;
#X connect 157 0 140 0;
#X connect 158 0 141 0;
#X connect 159 0 142 0;
#X connect 160 0 143 0;
#X connect 161 0 144 0;
#X connect 162 0 145 0;
#X connect 163 0 146 0;
#X connect 164 0 15 0;
#X connect 165 0 23 0;
#X connect 166 0 31 0;
#X connect 167 0 39 0;
#X connect 168 0 47 0;
#X connect 169 0 55 0;
#X connect 170 0 63 0;
#X connect 171 0 71 0;
#X connect 172 0 79 0;
#X connect 173 0 87 0;
#X connect 174 0 95 0;
#X connect 175 0 103 0;
#X connect 176 0 111 0;
#X connect 177 0 119 0;
#X connect 178 0 127 0;
#X connect 179 0 147 0;
