#N canvas 0 22 1680 1002 10;
#X text 782 23 TangiSynth Project;
#X obj 748 72 dumpOSC 12001;
#X text 845 72 recieves messages on port 12001;
#N canvas 958 377 450 300 sine 1;
#X floatatom 230 92 5 0 0 0 - - -;
#X obj 105 162 osc~ 261.6;
#X obj 118 197 *~;
#X obj 118 231 dac~;
#X obj 230 141 line~;
#X msg 230 117 \$1 50;
#X obj 133 16 inlet;
#X text 203 40 volume;
#X obj 133 38 unpack f f;
#X text 85 35 pitch;
#X obj 112 125 line;
#X msg 115 92 \$1 100;
#X connect 0 0 5 0;
#X connect 1 0 2 0;
#X connect 2 0 3 0;
#X connect 2 0 3 1;
#X connect 4 0 2 1;
#X connect 5 0 4 0;
#X connect 6 0 8 0;
#X connect 8 0 11 0;
#X connect 8 1 0 0;
#X connect 10 0 1 0;
#X connect 11 0 10 0;
#X restore 418 201 pd sine;
#N canvas 959 378 450 300 sawtooth 1;
#X obj 168 27 inlet;
#X obj 146 203 *~;
#X obj 146 237 dac~;
#X obj 145 179 phasor~ 261.6;
#X obj 238 200 line~;
#X msg 238 177 \$1 50;
#X text 219 110 sawtooth is loud \, so decrease volume;
#X obj 226 81 * 0.5;
#X obj 168 54 unpack f f;
#X text 107 53 pitch;
#X text 255 50 volume;
#X text 195 -1 comment;
#X obj 135 142 line;
#X msg 138 109 \$1 100;
#X connect 0 0 8 0;
#X connect 1 0 2 0;
#X connect 1 0 2 1;
#X connect 3 0 1 0;
#X connect 4 0 1 1;
#X connect 5 0 4 0;
#X connect 7 0 5 0;
#X connect 8 0 13 0;
#X connect 8 1 7 0;
#X connect 12 0 3 0;
#X connect 13 0 12 0;
#X restore 490 202 pd sawtooth;
#N canvas 959 377 450 300 square 1;
#X obj 178 18 inlet;
#X obj 92 241 *~;
#X obj 92 275 dac~;
#X obj 194 194 line~;
#X msg 194 172 \$1 50;
#X obj 86 149 phasor~ 261.6;
#X obj 88 172 expr~ $v1 > 0.5;
#X obj 88 195 *~ 2;
#X obj 88 219 -~ 1;
#X text 233 146 square is loud \, so decrease volume;
#X obj 234 88 * 0.3;
#X obj 178 45 unpack f f;
#X text 120 42 pitch;
#X text 251 46 volume;
#X text 219 14 comment;
#X msg 104 104 \$1 50;
#X obj 102 127 line;
#X connect 0 0 11 0;
#X connect 1 0 2 0;
#X connect 1 0 2 1;
#X connect 3 0 1 1;
#X connect 4 0 3 0;
#X connect 5 0 6 0;
#X connect 6 0 7 0;
#X connect 7 0 8 0;
#X connect 8 0 1 0;
#X connect 10 0 4 0;
#X connect 11 0 15 0;
#X connect 11 1 10 0;
#X connect 15 0 16 0;
#X connect 16 0 5 0;
#X restore 580 203 pd square;
#X obj 748 96 OSCroute /sine /sawtooth /square /noise;
#N canvas 0 22 450 300 noise 1;
#X obj 144 28 inlet;
#X text 189 29 volume;
#X obj 84 75 noise~;
#X obj 84 132 *~;
#X obj 84 157 dac~;
#X obj 144 53 unpack f;
#X obj 117 112 line~;
#X msg 138 84 \$1 500;
#X connect 0 0 5 0;
#X connect 2 0 3 0;
#X connect 3 0 4 0;
#X connect 3 0 4 1;
#X connect 5 0 7 0;
#X connect 6 0 3 1;
#X connect 7 0 6 0;
#X restore 679 204 pd noise;
#X connect 1 0 6 0;
#X connect 6 0 3 0;
#X connect 6 1 4 0;
#X connect 6 2 5 0;
#X connect 6 3 7 0;
